<svg width="139" height="158" viewBox="0 0 139 158" fill="none" xmlns="http://www.w3.org/2000/svg">
<path opacity="0.15" d="M56.0831 73.9199C55.6451 74.5887 56.9076 76.3322 59.5929 78.767C62.2783 81.2017 66.1665 84.1282 70.4023 86.9026C74.638 89.677 78.8743 92.0722 82.1792 93.5611C85.4841 95.05 87.5868 95.5107 88.0249 94.8419C88.463 94.1731 87.2004 92.4295 84.5151 89.9948C81.8297 87.5601 77.9415 84.6336 73.7057 81.8592C69.47 79.0847 65.2337 76.6896 61.9288 75.2007C58.624 73.7118 56.5212 73.2511 56.0831 73.9199Z" fill="#45413C"/>
<path d="M98.8088 69.2085L75.2728 53.7923C74.9303 53.5706 74.6729 53.2396 74.5422 52.8531C74.4116 52.4666 74.4154 52.0473 74.5532 51.6632L77.0206 44.5586C77.1119 44.2968 77.2616 44.0592 77.4583 43.8638C77.655 43.6683 77.8936 43.5202 78.156 43.4305C78.4183 43.3409 78.6977 43.3121 78.9729 43.3463C79.248 43.3805 79.5118 43.4768 79.7443 43.628L106.34 61.0483C106.571 61.201 106.765 61.4043 106.906 61.6429C107.048 61.8815 107.133 62.1491 107.156 62.4254C107.178 62.7018 107.138 62.9797 107.037 63.2381C106.937 63.4965 106.779 63.7287 106.575 63.917L101.048 69.0175C100.751 69.2972 100.368 69.4683 99.9617 69.503C99.5552 69.5376 99.1489 69.4339 98.8088 69.2085Z" fill="#F3CB60"/>
<path d="M76.236 46.7835L104.815 65.5032L106.541 63.895C106.745 63.7066 106.903 63.4745 107.004 63.2161C107.104 62.9577 107.145 62.6798 107.122 62.4034C107.099 62.1271 107.014 61.8595 106.873 61.6209C106.732 61.3823 106.538 61.179 106.306 61.0263L79.7443 43.628C79.5118 43.4768 79.248 43.3805 78.9729 43.3463C78.6977 43.3121 78.4183 43.3409 78.156 43.4305C77.8936 43.5202 77.655 43.6683 77.4583 43.8638C77.2616 44.0592 77.1119 44.2968 77.0206 44.5586L76.236 46.7835Z" fill="#F7E5C6"/>
<path d="M98.8088 69.2085L75.2728 53.7923C74.9303 53.5706 74.6729 53.2396 74.5422 52.8531C74.4116 52.4666 74.4154 52.0473 74.5532 51.6632L77.0206 44.5586C77.1119 44.2968 77.2616 44.0592 77.4583 43.8638C77.655 43.6683 77.8936 43.5202 78.156 43.4305C78.4183 43.3409 78.6977 43.3121 78.9729 43.3463C79.248 43.3805 79.5118 43.4768 79.7443 43.628L106.34 61.0483C106.571 61.201 106.765 61.4043 106.906 61.6429C107.048 61.8815 107.133 62.1491 107.156 62.4254C107.178 62.7018 107.138 62.9797 107.037 63.2381C106.937 63.4965 106.779 63.7287 106.575 63.917L101.048 69.0175C100.751 69.2972 100.368 69.4683 99.9617 69.503C99.5552 69.5376 99.1489 69.4339 98.8088 69.2085Z" stroke="#45413C" stroke-linecap="round" stroke-linejoin="round"/>
<path d="M75.6684 86.7484L68.4395 82.0134C67.3294 81.2886 66.5206 80.185 66.1636 78.9082C65.8066 77.6313 65.9259 76.2683 66.4992 75.0728L76.3655 54.5082L97.716 68.4929L82.8063 85.754C81.9394 86.7572 80.7376 87.4111 79.4244 87.5941C78.1113 87.777 76.7765 87.4765 75.6684 86.7484Z" fill="#F3CB60"/>
<path d="M94.7121 71.9787L97.716 68.4929L76.3655 54.5082L74.3702 58.6547L94.7121 71.9787Z" fill="#DEBB7E"/>
<path d="M75.6684 86.7484L68.4395 82.0134C67.3294 81.2886 66.5206 80.185 66.1636 78.9082C65.8066 77.6313 65.9259 76.2683 66.4992 75.0728L76.3655 54.5082L97.716 68.4929L82.8063 85.754C81.9394 86.7572 80.7376 87.4111 79.4244 87.5941C78.1113 87.777 76.7765 87.4765 75.6684 86.7484Z" stroke="#45413C" stroke-linecap="round" stroke-linejoin="round"/>
<path d="M118.799 46.0255C119.9 45.5365 120.838 44.7415 121.5 43.735C121.96 43.0337 122.276 42.2487 122.431 41.4249C122.587 40.6011 122.578 39.7548 122.406 38.9344C122.233 38.114 121.901 37.3357 121.427 36.6441C120.953 35.9525 120.348 35.3612 119.645 34.9041L117.745 33.6598C118.769 33.3987 119.695 32.8453 120.411 32.067C121.126 31.2886 121.599 30.3191 121.772 29.2765C121.946 28.2339 121.812 27.1633 121.388 26.1953C120.963 25.2273 120.267 24.4038 119.382 23.825L117.079 22.3164C116.278 21.7969 115.629 21.0754 115.196 20.2246C114.763 19.3739 114.563 18.4241 114.614 17.471C114.666 16.5179 114.968 15.5953 115.49 14.7962C116.012 13.9972 116.736 13.3501 117.588 12.9201C114.988 11.5283 111.962 11.1571 109.103 11.8794C106.243 12.6016 103.757 14.3652 102.129 16.8248C101.096 18.3962 100.333 20.1302 99.8746 21.9544L98.3448 20.9524C97.645 20.4908 96.8609 20.172 96.0377 20.014C95.2144 19.8561 94.368 19.8621 93.5471 20.0319C92.7261 20.2017 91.9468 20.5318 91.2537 21.0034C90.5606 21.4749 89.9674 22.0787 89.5081 22.7799C88.8501 23.7894 88.4959 24.9667 88.4877 26.1716C86.2083 25.7007 83.8361 26.0356 81.7762 27.1193C79.7163 28.2029 78.0965 29.968 77.1934 32.1132C76.2903 34.2584 76.1598 36.6505 76.8244 38.8812C77.489 41.1118 78.9073 43.0426 80.8371 44.3438L105.247 60.3326C107.214 61.568 109.549 62.0837 111.853 61.7921C114.157 61.5005 116.29 60.4196 117.887 58.7332C119.484 57.0469 120.448 54.8592 120.614 52.5424C120.78 50.2255 120.139 47.9227 118.799 46.0255Z" fill="#DAEEFF"/>
<path d="M80.5114 36.5151C81.6292 34.8178 83.2354 33.4993 85.1179 32.7337C87.0005 31.9681 89.071 31.7913 91.0561 32.2267C91.0653 31.0821 91.3837 29.9613 91.9776 28.9828C92.5715 28.0044 93.4188 27.2046 94.4299 26.6681C95.441 26.1316 96.5783 25.8783 97.7215 25.9351C98.8647 25.9919 99.9713 26.3566 100.924 26.9906L102.454 27.9927C102.919 26.1777 103.677 24.4507 104.698 22.8798C105.778 21.2294 107.254 19.8752 108.991 18.9402C110.728 18.0052 112.671 17.5191 114.643 17.526C114.672 16.551 114.97 15.6031 115.505 14.7871C116.039 13.9712 116.789 13.319 117.671 12.9029C115.061 11.4883 112.014 11.1064 109.135 11.8329C106.257 12.5593 103.756 14.3411 102.129 16.8249C101.096 18.3964 100.333 20.1304 99.8745 21.9546L98.3446 20.9526C97.6448 20.491 96.8608 20.1721 96.0375 20.0142C95.2142 19.8562 94.3678 19.8623 93.5469 20.0321C92.726 20.2019 91.9466 20.532 91.2535 21.0036C90.5604 21.4751 89.9672 22.0789 89.5079 22.7801C88.8499 23.7896 88.4958 24.9669 88.4875 26.1718C86.4151 25.7324 84.2568 25.9592 82.321 26.8199C80.3852 27.6805 78.7709 29.131 77.7088 30.964C76.6467 32.7971 76.1912 34.9189 76.4072 37.0264C76.6232 39.1338 77.4998 41.1191 78.9117 42.6985C78.7583 40.5182 79.3199 38.3474 80.5114 36.5151Z" fill="white"/>
<path d="M118.799 46.0255C119.9 45.5365 120.838 44.7415 121.5 43.735C121.96 43.0337 122.276 42.2487 122.431 41.4249C122.587 40.6011 122.578 39.7548 122.406 38.9344C122.233 38.114 121.901 37.3357 121.427 36.6441C120.953 35.9525 120.348 35.3612 119.645 34.9041L117.745 33.6598C118.769 33.3987 119.695 32.8453 120.411 32.067C121.126 31.2886 121.599 30.3191 121.772 29.2765C121.946 28.2339 121.812 27.1633 121.388 26.1953C120.963 25.2273 120.267 24.4038 119.382 23.825L117.079 22.3164C116.278 21.7969 115.629 21.0754 115.196 20.2246C114.763 19.3739 114.563 18.4241 114.614 17.471C114.666 16.5179 114.968 15.5953 115.49 14.7962C116.012 13.9972 116.736 13.3501 117.588 12.9201C114.988 11.5283 111.962 11.1571 109.103 11.8794C106.243 12.6016 103.757 14.3652 102.129 16.8248C101.096 18.3962 100.333 20.1302 99.8746 21.9544L98.3448 20.9524C97.645 20.4908 96.8609 20.172 96.0377 20.014C95.2144 19.8561 94.368 19.8621 93.5471 20.0319C92.7261 20.2017 91.9468 20.5318 91.2537 21.0034C90.5606 21.4749 89.9674 22.0787 89.5081 22.7799C88.8501 23.7894 88.4959 24.9667 88.4877 26.1716C86.2083 25.7007 83.8361 26.0356 81.7762 27.1193C79.7163 28.2029 78.0965 29.968 77.1934 32.1132C76.2903 34.2584 76.1598 36.6505 76.8244 38.8812C77.489 41.1118 78.9073 43.0426 80.8371 44.3438L105.247 60.3326C107.214 61.568 109.549 62.0837 111.853 61.7921C114.157 61.5005 116.29 60.4196 117.887 58.7332C119.484 57.0469 120.448 54.8592 120.614 52.5424C120.78 50.2255 120.139 47.9227 118.799 46.0255Z" stroke="#45413C" stroke-linecap="round" stroke-linejoin="round"/>
<path d="M112.996 50.1529L111.499 52.4393C111.101 53.0456 110.48 53.4694 109.77 53.6173C109.06 53.7652 108.321 53.6252 107.715 53.228C107.108 52.8309 106.684 52.2091 106.537 51.4994C106.389 50.7898 106.529 50.0505 106.926 49.4441L110.416 44.1149M105.268 32.022L102.769 35.8382C102.343 36.3807 101.729 36.7436 101.049 36.8554C100.368 36.9671 99.6708 36.8195 99.094 36.4417C98.5172 36.0639 98.1032 35.4834 97.9338 34.815C97.7643 34.1466 97.8519 33.439 98.1791 32.832L99.1921 31.2854" stroke="#45413C" stroke-linecap="round" stroke-linejoin="round"/>
<path d="M87.174 46.3325L84.6744 50.1487C84.2487 50.6911 83.635 51.0541 82.9546 51.1659C82.2742 51.2776 81.5766 51.13 80.9998 50.7522C80.423 50.3744 80.0089 49.7939 79.8395 49.1255C79.6701 48.4571 79.7576 47.7495 80.0848 47.1425L82.5845 43.3263L87.174 46.3325Z" fill="#DAEEFF"/>
<path d="M86.183 47.8455L84.6744 50.1487C84.2487 50.6911 83.635 51.0541 82.9546 51.1659C82.2742 51.2776 81.5766 51.13 80.9998 50.7522C80.423 50.3744 80.0089 49.7939 79.8395 49.1255C79.6701 48.4571 79.7576 47.7495 80.0848 47.1425L82.5845 43.3263" stroke="#45413C" stroke-linecap="round" stroke-linejoin="round"/>
<path opacity="0.15" d="M3.42651 86.4679C3.23633 86.8645 4.05183 87.7234 5.69359 88.8555C7.33535 89.9876 9.66889 91.3002 12.1809 92.5047C14.6928 93.7091 17.1775 94.7066 19.0882 95.2778C20.9989 95.8491 22.1791 95.9471 22.3693 95.5505C22.5595 95.1539 21.744 94.295 20.1022 93.1629C18.4605 92.0308 16.1269 90.7181 13.615 89.5137C11.103 88.3093 8.61835 87.3117 6.70765 86.7405C4.79694 86.1693 3.61668 86.0713 3.42651 86.4679Z" fill="#45413C"/>
<path d="M26.3829 80.7863L12.425 74.0938C12.2221 73.9979 12.0576 73.8362 11.9582 73.6349C11.8588 73.4337 11.8303 73.2047 11.8775 72.9853L12.7055 68.9312C12.7362 68.7817 12.8006 68.6413 12.8936 68.5204C12.9866 68.3995 13.1059 68.3013 13.2425 68.2333C13.379 68.1653 13.5293 68.1292 13.6818 68.1278C13.8344 68.1264 13.9852 68.1597 14.123 68.2252L29.8954 75.7877C30.0327 75.8541 30.1532 75.9509 30.2476 76.0707C30.3421 76.1905 30.408 76.3302 30.4405 76.4793C30.473 76.6284 30.4711 76.7829 30.4351 76.9311C30.3991 77.0793 30.3298 77.2174 30.2326 77.335L27.5901 80.519C27.4485 80.6932 27.2522 80.8144 27.033 80.8629C26.8139 80.9114 26.5847 80.8844 26.3829 80.7863Z" fill="#F3CB60"/>
<path d="M12.4397 70.2016L29.3885 78.3281L30.2126 77.3254C30.3099 77.2079 30.3792 77.0698 30.4152 76.9215C30.4512 76.7733 30.453 76.6188 30.4205 76.4697C30.3881 76.3207 30.3221 76.181 30.2277 76.0612C30.1332 75.9413 30.0128 75.8446 29.8755 75.7782L14.123 68.2252C13.9852 68.1597 13.8344 68.1264 13.6818 68.1278C13.5293 68.1292 13.379 68.1653 13.2425 68.2333C13.1059 68.3013 12.9866 68.3995 12.8936 68.5204C12.8006 68.6413 12.7362 68.7817 12.7055 68.9312L12.4397 70.2016Z" fill="#F7E5C6"/>
<path d="M26.3829 80.7863L12.425 74.0938C12.2221 73.9979 12.0576 73.8362 11.9582 73.6349C11.8588 73.4337 11.8303 73.2047 11.8775 72.9853L12.7055 68.9312C12.7362 68.7817 12.8006 68.6413 12.8936 68.5204C12.9866 68.3995 13.1059 68.3013 13.2425 68.2333C13.379 68.1653 13.5293 68.1292 13.6818 68.1278C13.8344 68.1264 13.9852 68.1597 14.123 68.2252L29.8954 75.7877C30.0327 75.8541 30.1532 75.9509 30.2476 76.0707C30.3421 76.1905 30.408 76.3302 30.4405 76.4793C30.473 76.6284 30.4711 76.7829 30.4351 76.9311C30.3991 77.0793 30.3298 77.2174 30.2326 77.335L27.5901 80.519C27.4485 80.6932 27.2522 80.8144 27.033 80.8629C26.8139 80.9114 26.5847 80.8844 26.3829 80.7863Z" stroke="#45413C" stroke-linecap="round" stroke-linejoin="round"/>
<path d="M15.0414 92.037L10.7543 89.9814C10.0962 89.667 9.57468 89.1241 9.28701 88.4538C8.99934 87.7835 8.96508 87.0315 9.19062 86.3379L13.073 74.4047L25.7348 80.4757L18.8614 90.9748C18.4618 91.585 17.854 92.0291 17.1512 92.2245C16.4485 92.4199 15.6987 92.3533 15.0414 92.037Z" fill="#F3CB60"/>
<path d="M24.3505 82.5954L25.7348 80.4757L13.073 74.4047L12.287 76.8112L24.3505 82.5954Z" fill="#DEBB7E"/>
<path d="M15.0414 92.037L10.7543 89.9814C10.0962 89.667 9.57468 89.1241 9.28701 88.4538C8.99934 87.7835 8.96508 87.0315 9.19062 86.3379L13.073 74.4047L25.7348 80.4757L18.8614 90.9748C18.4618 91.585 17.854 92.0291 17.1512 92.2245C16.4485 92.4199 15.6987 92.3533 15.0414 92.037Z" stroke="#45413C" stroke-linecap="round" stroke-linejoin="round"/>
<path d="M35.595 66.6878C36.16 66.3409 36.6134 65.8391 36.9014 65.2419C37.1008 64.8261 37.2162 64.3749 37.2409 63.9144C37.2656 63.4538 37.1992 62.9929 37.0454 62.5581C36.8917 62.1233 36.6536 61.7231 36.3449 61.3804C36.0362 61.0378 35.6628 60.7594 35.2463 60.5613L34.1197 60.0212C34.6592 59.8042 35.124 59.4349 35.4572 58.9584C35.7905 58.4819 35.9779 57.9187 35.9966 57.3375C36.0153 56.7563 35.8644 56.1822 35.5625 55.6852C35.2605 55.1883 34.8205 54.7899 34.296 54.5388L32.9301 53.8839C32.4556 53.6589 32.0489 53.3127 31.7509 52.8803C31.4529 52.4479 31.2743 51.9445 31.233 51.421C31.1918 50.8975 31.2893 50.3724 31.5158 49.8986C31.7424 49.4248 32.0899 49.0192 32.5233 48.7227C31.004 48.1531 29.3268 48.1711 27.8202 48.7732C26.3135 49.3754 25.0859 50.5182 24.3777 51.9781C23.9284 52.9103 23.6391 53.9115 23.5217 54.9397L22.6145 54.5047C22.1992 54.304 21.7484 54.1872 21.288 54.161C20.8275 54.1348 20.3664 54.1998 19.9311 54.3522C19.4958 54.5046 19.0948 54.7414 18.7512 55.049C18.4076 55.3567 18.1281 55.7291 17.9287 56.145C17.6434 56.7434 17.536 57.4112 17.6193 58.0689C16.342 57.9781 15.0728 58.3336 14.0284 59.0746C12.984 59.8156 12.2293 60.8961 11.893 62.1317C11.5568 63.3674 11.6599 64.6814 12.1848 65.8494C12.7097 67.0174 13.6238 67.967 14.771 68.536L29.2473 75.477C30.4099 76.0074 31.7204 76.1186 32.9558 75.7918C34.1913 75.4649 35.2753 74.7201 36.0235 73.6841C36.7717 72.6481 37.1379 71.3849 37.0598 70.1094C36.9817 68.8339 36.4641 67.6248 35.595 66.6878Z" fill="#FECDDC"/>
<path d="M14.0232 64.2905C14.5091 63.2835 15.2889 62.4475 16.2598 61.8928C17.2306 61.3382 18.3469 61.091 19.4611 61.1838C19.3828 60.5589 19.4748 59.9245 19.7274 59.3477C19.9799 58.7708 20.3837 58.273 20.896 57.9068C21.4083 57.5405 22.0101 57.3196 22.6376 57.2673C23.2652 57.215 23.8952 57.3332 24.4611 57.6096L25.3683 58.0446C25.4896 57.0209 25.7771 56.024 26.2195 55.0929C26.6885 54.1142 27.3945 53.2683 28.2736 52.6319C29.1526 51.9955 30.1768 51.5888 31.2529 51.4489C31.1977 50.9151 31.2913 50.3765 31.5233 49.8926C31.7554 49.4087 32.1168 48.9984 32.5675 48.7072C31.041 48.1259 29.3517 48.1396 27.8347 48.7455C26.3177 49.3514 25.0839 50.5052 24.3777 51.9782C23.9284 52.9104 23.6391 53.9116 23.5218 54.9398L22.6145 54.5048C22.1992 54.3041 21.7485 54.1873 21.288 54.1611C20.8275 54.1349 20.3664 54.1999 19.9311 54.3523C19.4958 54.5047 19.0949 54.7415 18.7512 55.0491C18.4076 55.3568 18.1281 55.7292 17.9287 56.1451C17.6434 56.7435 17.536 57.4113 17.6193 58.069C16.4572 57.9803 15.2967 58.2612 14.3037 58.8716C13.3108 59.4819 12.5361 60.3905 12.0905 61.4675C11.6448 62.5445 11.5509 63.7347 11.8223 64.8683C12.0936 66.0018 12.7162 67.0206 13.6012 67.779C13.3587 66.6012 13.5069 65.3765 14.0232 64.2905Z" fill="white"/>
<path d="M35.595 66.6878C36.16 66.3409 36.6134 65.8391 36.9014 65.2419C37.1008 64.8261 37.2162 64.3749 37.2409 63.9144C37.2656 63.4538 37.1992 62.9929 37.0454 62.5581C36.8917 62.1233 36.6536 61.7231 36.3449 61.3804C36.0362 61.0378 35.6628 60.7594 35.2463 60.5613L34.1197 60.0212C34.6592 59.8042 35.124 59.4349 35.4572 58.9584C35.7905 58.4819 35.9779 57.9187 35.9966 57.3375C36.0153 56.7563 35.8644 56.1822 35.5625 55.6852C35.2605 55.1883 34.8205 54.7899 34.296 54.5388L32.9301 53.8839C32.4556 53.6589 32.0489 53.3127 31.7509 52.8803C31.4529 52.4479 31.2743 51.9445 31.233 51.421C31.1918 50.8975 31.2893 50.3724 31.5158 49.8986C31.7424 49.4248 32.0899 49.0192 32.5233 48.7227C31.004 48.1531 29.3268 48.1711 27.8202 48.7732C26.3135 49.3754 25.0859 50.5182 24.3777 51.9781C23.9284 52.9103 23.6391 53.9115 23.5217 54.9397L22.6145 54.5047C22.1992 54.304 21.7484 54.1872 21.288 54.161C20.8275 54.1348 20.3664 54.1998 19.9311 54.3522C19.4958 54.5046 19.0948 54.7414 18.7512 55.049C18.4076 55.3567 18.1281 55.7291 17.9287 56.145C17.6434 56.7434 17.536 57.4112 17.6193 58.0689C16.342 57.9781 15.0728 58.3336 14.0284 59.0746C12.984 59.8156 12.2293 60.8961 11.893 62.1317C11.5568 63.3674 11.6599 64.6814 12.1848 65.8494C12.7097 67.0174 13.6238 67.967 14.771 68.536L29.2473 75.477C30.4099 76.0074 31.7204 76.1186 32.9558 75.7918C34.1913 75.4649 35.2753 74.7201 36.0235 73.6841C36.7717 72.6481 37.1379 71.3849 37.0598 70.1094C36.9817 68.8339 36.4641 67.6248 35.595 66.6878Z" stroke="#45413C" stroke-linecap="round" stroke-linejoin="round"/>
<path d="M32.7313 69.3613L32.0812 70.7172C31.9088 71.0768 31.6006 71.3532 31.2244 71.4855C30.8482 71.6179 30.4348 71.5954 30.0752 71.423C29.7156 71.2506 29.4392 70.9423 29.3068 70.5661C29.1745 70.1899 29.197 69.7766 29.3694 69.4169L30.8848 66.2565M27.1964 60.0369L26.1113 62.3001C25.9186 62.6269 25.6104 62.8696 25.2475 62.9801C24.8846 63.0906 24.4934 63.0609 24.1514 62.8969C23.8093 62.7328 23.5412 62.4464 23.4001 62.0943C23.2591 61.7421 23.2553 61.3499 23.3895 60.9951L23.8293 60.0778" stroke="#45413C" stroke-linecap="round" stroke-linejoin="round"/>
<path d="M18.3717 69.1589L17.2866 71.4221C17.0939 71.7489 16.7857 71.9915 16.4228 72.102C16.0599 72.2125 15.6687 72.1829 15.3267 72.0188C14.9846 71.8548 14.7165 71.5684 14.5754 71.2163C14.4344 70.8641 14.4306 70.4719 14.5648 70.117L15.6499 67.8539L18.3717 69.1589Z" fill="#FECDDC"/>
<path d="M17.9415 70.0562L17.2866 71.4221C17.0939 71.7489 16.7857 71.9915 16.4228 72.102C16.0599 72.2125 15.6687 72.1829 15.3267 72.0188C14.9846 71.8548 14.7165 71.5684 14.5754 71.2163C14.4344 70.8641 14.4306 70.4719 14.5648 70.117L15.6499 67.8539" stroke="#45413C" stroke-linecap="round" stroke-linejoin="round"/>
<path opacity="0.15" d="M65.6456 136.534C65.275 136.771 65.5153 137.931 66.3138 139.758C67.1123 141.586 68.4036 143.931 69.9035 146.279C71.4034 148.626 72.9892 150.784 74.3119 152.276C75.6346 153.769 76.5859 154.474 76.9565 154.237C77.3272 154 77.0868 152.841 76.2883 151.013C75.4898 149.186 74.1986 146.84 72.6987 144.493C71.1987 142.145 69.613 139.988 68.2903 138.495C66.9676 137.003 66.0163 136.298 65.6456 136.534Z" fill="#45413C"/>
<path d="M88.1489 143.806L79.8146 130.761C79.6927 130.573 79.6381 130.349 79.6598 130.125C79.6814 129.902 79.7779 129.692 79.9336 129.531L82.774 126.522C82.8789 126.411 83.0076 126.326 83.1504 126.272C83.2932 126.218 83.4463 126.198 83.5982 126.212C83.7501 126.226 83.8968 126.275 84.0271 126.354C84.1575 126.433 84.2682 126.541 84.3507 126.669L93.7686 141.409C93.8503 141.538 93.9016 141.684 93.9187 141.835C93.9358 141.987 93.9182 142.14 93.8673 142.284C93.8163 142.428 93.7333 142.558 93.6246 142.665C93.5158 142.772 93.3842 142.853 93.2396 142.902L89.3157 144.215C89.1036 144.288 88.8729 144.288 88.6611 144.213C88.4492 144.139 88.2688 143.995 88.1489 143.806Z" fill="#F3CB60"/>
<path d="M81.8785 127.461L91.9988 143.301L93.2277 142.883C93.3723 142.834 93.5039 142.754 93.6127 142.647C93.7214 142.54 93.8044 142.409 93.8554 142.265C93.9063 142.122 93.9239 141.968 93.9068 141.817C93.8897 141.665 93.8384 141.519 93.7567 141.39L84.3507 126.669C84.2682 126.541 84.1575 126.433 84.0271 126.354C83.8968 126.275 83.7501 126.226 83.5982 126.212C83.4463 126.198 83.2932 126.218 83.1504 126.272C83.0076 126.326 82.8789 126.411 82.774 126.522L81.8785 127.461Z" fill="#F7E5C6"/>
<path d="M88.1489 143.806L79.8146 130.761C79.6927 130.573 79.6381 130.349 79.6598 130.125C79.6814 129.902 79.7779 129.692 79.9336 129.531L82.774 126.522C82.8789 126.411 83.0076 126.326 83.1504 126.272C83.2932 126.218 83.4463 126.198 83.5982 126.212C83.7501 126.226 83.8968 126.275 84.0271 126.354C84.1575 126.433 84.2682 126.541 84.3507 126.669L93.7686 141.409C93.8503 141.538 93.9016 141.684 93.9187 141.835C93.9358 141.987 93.9182 142.14 93.8673 142.284C93.8163 142.428 93.7333 142.558 93.6246 142.665C93.5158 142.772 93.3842 142.853 93.2396 142.902L89.3157 144.215C89.1036 144.288 88.8729 144.288 88.6611 144.213C88.4492 144.139 88.2688 143.995 88.1489 143.806Z" stroke="#45413C" stroke-linecap="round" stroke-linejoin="round"/>
<path d="M72.581 147.389L70.0212 143.383C69.6276 142.768 69.4706 142.032 69.5794 141.311C69.6882 140.59 70.0555 139.933 70.6127 139.462L80.2017 131.367L87.7621 143.2L76.3873 148.5C75.726 148.808 74.9754 148.865 74.2752 148.66C73.575 148.456 72.9729 148.004 72.581 147.389Z" fill="#F3CB60"/>
<path d="M85.4685 144.272L87.7621 143.2L80.2017 131.367L78.2652 132.998L85.4685 144.272Z" fill="#DEBB7E"/>
<path d="M72.581 147.389L70.0212 143.383C69.6276 142.768 69.4706 142.032 69.5794 141.311C69.6882 140.59 70.0555 139.933 70.6127 139.462L80.2017 131.367L87.7621 143.2L76.3873 148.5C75.726 148.808 74.9754 148.865 74.2752 148.66C73.575 148.456 72.9729 148.004 72.581 147.389Z" stroke="#45413C" stroke-linecap="round" stroke-linejoin="round"/>
<path d="M103.409 136.68C104.072 136.683 104.721 136.495 105.281 136.14C105.67 135.891 106.005 135.569 106.269 135.19C106.533 134.812 106.719 134.385 106.818 133.935C106.916 133.484 106.925 133.019 106.843 132.565C106.762 132.111 106.591 131.677 106.341 131.29L105.669 130.237C106.242 130.337 106.831 130.268 107.365 130.039C107.9 129.809 108.356 129.429 108.678 128.945C109 128.461 109.175 127.894 109.18 127.312C109.185 126.731 109.021 126.16 108.708 125.671L107.893 124.394C107.608 123.953 107.445 123.444 107.419 122.92C107.394 122.395 107.508 121.873 107.748 121.407C107.989 120.94 108.349 120.545 108.791 120.262C109.233 119.979 109.742 119.817 110.267 119.794C109.276 118.509 107.841 117.64 106.244 117.358C104.646 117.075 103 117.4 101.629 118.267C100.756 118.822 99.9822 119.521 99.3406 120.333L98.7988 119.485C98.5517 119.095 98.2302 118.758 97.8527 118.493C97.4751 118.229 97.049 118.041 96.5988 117.941C96.1485 117.841 95.683 117.831 95.2288 117.911C94.7747 117.991 94.3408 118.161 93.9522 118.409C93.3943 118.767 92.9511 119.278 92.6752 119.881C91.6376 119.13 90.3716 118.764 89.0935 118.843C87.8154 118.922 86.6045 119.443 85.6675 120.315C84.7305 121.188 84.1256 122.359 83.956 123.629C83.7865 124.898 84.0628 126.187 84.7378 127.275L93.3817 140.803C94.0902 141.867 95.1453 142.652 96.3674 143.026C97.5896 143.399 98.9034 143.337 100.085 142.851C101.267 142.365 102.244 141.485 102.85 140.36C103.456 139.234 103.653 137.934 103.409 136.68Z" fill="#FECDDC"/>
<path d="M86.3399 123.273C87.2836 122.673 88.3869 122.374 89.5043 122.414C90.6217 122.454 91.7006 122.833 92.5986 123.499C92.8614 122.926 93.2739 122.436 93.7926 122.079C94.3113 121.722 94.9169 121.511 95.5452 121.47C96.1736 121.429 96.8015 121.558 97.3623 121.845C97.9232 122.131 98.3963 122.563 98.7315 123.097L99.2733 123.944C99.9159 123.138 100.686 122.443 101.552 121.885C102.467 121.3 103.513 120.953 104.595 120.876C105.678 120.798 106.762 120.993 107.751 121.441C107.985 120.958 108.348 120.55 108.801 120.261C109.253 119.972 109.776 119.814 110.313 119.804C109.322 118.505 107.879 117.626 106.271 117.342C104.662 117.057 103.005 117.387 101.629 118.267C100.756 118.822 99.9821 119.521 99.3404 120.333L98.7987 119.485C98.5516 119.095 98.2301 118.758 97.8526 118.494C97.475 118.229 97.0489 118.041 96.5987 117.941C96.1484 117.841 95.6829 117.831 95.2287 117.911C94.7746 117.991 94.3407 118.161 93.9521 118.409C93.3942 118.767 92.951 119.278 92.6751 119.881C91.7342 119.193 90.6 118.82 89.4344 118.815C88.2689 118.811 87.1317 119.175 86.1853 119.855C85.239 120.535 84.5318 121.497 84.165 122.604C83.7981 123.71 83.7903 124.904 84.1426 126.015C84.5573 124.886 85.3287 123.923 86.3399 123.273Z" fill="white"/>
<path d="M103.409 136.68C104.072 136.683 104.721 136.495 105.281 136.14C105.67 135.891 106.005 135.569 106.269 135.19C106.533 134.812 106.719 134.385 106.818 133.935C106.916 133.484 106.925 133.019 106.843 132.565C106.762 132.111 106.591 131.677 106.341 131.29L105.669 130.237C106.242 130.337 106.831 130.268 107.365 130.039C107.9 129.809 108.356 129.429 108.678 128.945C109 128.461 109.175 127.894 109.18 127.312C109.185 126.731 109.021 126.16 108.708 125.671L107.893 124.394C107.608 123.953 107.445 123.444 107.419 122.92C107.394 122.395 107.508 121.873 107.748 121.407C107.989 120.94 108.349 120.545 108.791 120.262C109.233 119.979 109.742 119.817 110.267 119.794C109.276 118.509 107.841 117.64 106.244 117.358C104.646 117.075 103 117.4 101.629 118.267C100.756 118.822 99.9822 119.521 99.3406 120.333L98.7988 119.485C98.5517 119.095 98.2302 118.758 97.8527 118.493C97.4751 118.229 97.049 118.041 96.5988 117.941C96.1485 117.841 95.683 117.831 95.2288 117.911C94.7747 117.991 94.3408 118.161 93.9522 118.409C93.3943 118.767 92.9511 119.278 92.6752 119.881C91.6376 119.13 90.3716 118.764 89.0935 118.843C87.8154 118.922 86.6045 119.443 85.6675 120.315C84.7305 121.188 84.1256 122.359 83.956 123.629C83.7865 124.898 84.0628 126.187 84.7378 127.275L93.3817 140.803C94.0902 141.867 95.1453 142.652 96.3674 143.026C97.5896 143.399 98.9034 143.337 100.085 142.851C101.267 142.365 102.244 141.485 102.85 140.36C103.456 139.234 103.653 137.934 103.409 136.68Z" stroke="#45413C" stroke-linecap="round" stroke-linejoin="round"/>
<path d="M99.566 137.442L98.2988 138.252C97.9628 138.467 97.5552 138.539 97.1657 138.453C96.7762 138.368 96.4368 138.131 96.2221 137.795C96.0073 137.458 95.9349 137.051 96.0207 136.661C96.1065 136.272 96.3435 135.933 96.6796 135.718L99.6331 133.831M99.7768 126.601L97.6618 127.952C97.3259 128.129 96.936 128.172 96.5694 128.075C96.2027 127.978 95.8859 127.746 95.6817 127.427C95.4774 127.107 95.4006 126.722 95.4663 126.349C95.532 125.975 95.7355 125.64 96.0366 125.409L96.8938 124.861" stroke="#45413C" stroke-linecap="round" stroke-linejoin="round"/>
<path d="M87.4692 129.702L85.3542 131.053C85.0182 131.229 84.6284 131.273 84.2617 131.176C83.8951 131.078 83.5783 130.847 83.3741 130.527C83.1698 130.208 83.093 129.823 83.1587 129.449C83.2244 129.076 83.4279 128.74 83.729 128.51L85.844 127.158L87.4692 129.702Z" fill="#FECDDC"/>
<path d="M86.6306 130.238L85.3542 131.053C85.0182 131.229 84.6284 131.273 84.2617 131.176C83.8951 131.078 83.5783 130.847 83.3741 130.527C83.1698 130.208 83.093 129.823 83.1587 129.449C83.2244 129.076 83.4279 128.74 83.729 128.51L85.844 127.158" stroke="#45413C" stroke-linecap="round" stroke-linejoin="round"/>
</svg>
