<svg width="74" height="74" viewBox="0 0 74 74" fill="none" xmlns="http://www.w3.org/2000/svg">
<g clip-path="url(#clip0_134_244)">
<path d="M56.6562 0H17.3438C7.76506 0 0 7.76506 0 17.3438V56.6562C0 66.2349 7.76506 74 17.3438 74H56.6562C66.2349 74 74 66.2349 74 56.6562V17.3438C74 7.76506 66.2349 0 56.6562 0Z" fill="white"/>
<path d="M56.6562 0H17.3438C7.76506 0 0 7.76506 0 17.3438V56.6562C0 66.2349 7.76506 74 17.3438 74H56.6562C66.2349 74 74 66.2349 74 56.6562V17.3438C74 7.76506 66.2349 0 56.6562 0Z" fill="url(#paint0_linear_134_244)"/>
<path d="M57.6888 26.4235C57.7206 26.8822 57.7206 27.341 57.7206 27.804C57.7206 41.9094 46.9825 58.1773 27.3473 58.1773V58.1686C21.5468 58.177 15.8664 56.5157 10.9844 53.3832C11.8279 53.4846 12.6754 53.5352 13.5252 53.5373C18.3328 53.541 23.0021 51.9285 26.7828 48.9588C24.5553 48.9167 22.3966 48.1795 20.6085 46.8504C18.8205 45.5213 17.4925 43.6666 16.8101 41.5458C18.4095 41.8542 20.0582 41.7913 21.6294 41.3619C16.6494 40.3557 13.0665 35.9802 13.0665 30.8985V30.7632C14.5511 31.5901 16.2126 32.0483 17.9112 32.0992C13.2209 28.9643 11.775 22.7243 14.6072 17.8455C17.2872 21.1435 20.6309 23.8407 24.4213 25.7621C28.2116 27.6835 32.3638 28.7861 36.608 28.9982C36.1849 27.1766 36.2474 25.2759 36.7893 23.486C37.3312 21.6962 38.3336 20.0801 39.6961 18.7992C43.9956 14.7575 50.7576 14.9648 54.7993 19.262C57.1899 18.79 59.4824 17.9136 61.5781 16.6705C60.7812 19.1422 59.1136 21.2402 56.8855 22.5743C59.0016 22.325 61.0681 21.7586 63.0156 20.894C61.583 23.0394 59.7792 24.9117 57.6888 26.4235Z" fill="white"/>
</g>
<defs>
<linearGradient id="paint0_linear_134_244" x1="37" y1="0" x2="37" y2="74" gradientUnits="userSpaceOnUse">
<stop stop-color="#DAEEFF"/>
<stop offset="1" stop-color="#6AC3FF" stop-opacity="0.85"/>
</linearGradient>
<clipPath id="clip0_134_244">
<rect width="74" height="74" fill="white"/>
</clipPath>
</defs>
</svg>
