<svg width="91" height="91" viewBox="0 0 91 91" fill="none" xmlns="http://www.w3.org/2000/svg">
<path d="M64.4583 11.375H26.5417C18.1653 11.375 11.375 18.1653 11.375 26.5417V64.4583C11.375 72.8347 18.1653 79.625 26.5417 79.625H64.4583C72.8347 79.625 79.625 72.8347 79.625 64.4583V26.5417C79.625 18.1653 72.8347 11.375 64.4583 11.375Z" fill="url(#paint0_linear_134_239)" stroke="black" stroke-width="4" stroke-linejoin="round"/>
<path d="M45.4999 60.6666C53.8763 60.6666 60.6666 53.8763 60.6666 45.4999C60.6666 37.1236 53.8763 30.3333 45.4999 30.3333C37.1236 30.3333 30.3333 37.1236 30.3333 45.4999C30.3333 53.8763 37.1236 60.6666 45.4999 60.6666Z" fill="url(#paint1_linear_134_239)" stroke="white" stroke-width="4" stroke-linejoin="round"/>
<path d="M66.3542 28.4376C68.4483 28.4376 70.1458 26.7401 70.1458 24.6459C70.1458 22.5518 68.4483 20.8542 66.3542 20.8542C64.26 20.8542 62.5625 22.5518 62.5625 24.6459C62.5625 26.7401 64.26 28.4376 66.3542 28.4376Z" fill="white"/>
<defs>
<linearGradient id="paint0_linear_134_239" x1="45.5" y1="11.375" x2="45.5" y2="79.625" gradientUnits="userSpaceOnUse">
<stop stop-color="#FECDDC"/>
<stop offset="1" stop-color="#FA147C" stop-opacity="0.92"/>
</linearGradient>
<linearGradient id="paint1_linear_134_239" x1="45.4999" y1="30.3333" x2="45.4999" y2="60.6666" gradientUnits="userSpaceOnUse">
<stop/>
<stop offset="1" stop-color="#FF47CC"/>
</linearGradient>
</defs>
</svg>
