<svg width="98" height="98" viewBox="0 0 98 98" fill="none" xmlns="http://www.w3.org/2000/svg">
<path d="M77.5833 16.3333H20.4166C18.9727 16.3333 17.5878 16.9069 16.5668 17.9279C15.5458 18.9489 14.9722 20.3337 14.9722 21.7777V78.9444C14.9722 80.3883 15.5458 81.7731 16.5668 82.7942C17.5878 83.8152 18.9727 84.3888 20.4166 84.3888H77.5833C79.0272 84.3888 80.4121 83.8152 81.4331 82.7942C82.4541 81.7731 83.0277 80.3883 83.0277 78.9444V21.7777C83.0277 20.3337 82.4541 18.9489 81.4331 17.9279C80.4121 16.9069 79.0272 16.3333 77.5833 16.3333Z" fill="url(#paint0_linear_134_233)"/>
<path d="M66.0139 36.5378H72.3948V26.9678C68.14 26.9678 51.1261 22.7143 51.1261 40.7912V47.1708H42.6191V57.8051H51.1261V85.7501H61.7604V57.8051H71.3304L72.3934 47.1708H61.7604V40.7926C61.7604 36.5391 64.9509 36.5378 66.0139 36.5378Z" fill="white"/>
<path d="M62.0925 84.3888H78.6368C79.8013 84.3888 80.9182 83.9262 81.7416 83.1027C82.5651 82.2793 83.0277 81.1624 83.0277 79.9979V20.7242C83.0277 19.5596 82.5651 18.4428 81.7416 17.6193C80.9182 16.7959 79.8013 16.3333 78.6368 16.3333H19.3631C18.1986 16.3333 17.0817 16.7959 16.2582 17.6193C15.4348 18.4428 14.9722 19.5596 14.9722 20.7242V79.9979C14.9722 81.1624 15.4348 82.2793 16.2582 83.1027C17.0817 83.9262 18.1986 84.3888 19.3631 84.3888H51.3166" stroke="black" stroke-width="2" stroke-miterlimit="10"/>
<path d="M62.0911 84.3889V57.4498H71.7891L72.8671 46.6739H62.0911V40.2086C62.0911 35.898 65.3238 35.898 66.4018 35.898H72.8671V26.2014C68.5115 25.7604 51.3152 21.8921 51.3152 40.2099V46.6752H42.6953V57.4511H51.3152V84.3889" stroke="black" stroke-width="2" stroke-miterlimit="10" stroke-linecap="round" stroke-linejoin="round"/>
<defs>
<linearGradient id="paint0_linear_134_233" x1="48.9999" y1="16.3333" x2="48.9999" y2="84.3888" gradientUnits="userSpaceOnUse">
<stop stop-color="#DAEEFF"/>
<stop offset="1" stop-color="#61B2E4" stop-opacity="0.44"/>
</linearGradient>
</defs>
</svg>
