<svg width="89" height="127" viewBox="0 0 89 127" fill="none" xmlns="http://www.w3.org/2000/svg">
<path d="M46.9216 80.4029L5.17815 80.0045C5.17815 80.0045 4.79095 82.1459 5.593 84.3071C6.33052 86.2991 9.30824 89.1675 9.30824 89.1675L12.8022 97.4838L15.6785 116.875L16.2317 122.483C16.2317 122.483 18.2783 126.616 29.8481 126.616C41.4179 126.616 43.4368 122.333 43.4368 122.333L43.8332 118.728L47.0506 98.6989L53.4855 86.6975C53.4855 86.6975 54.896 85.6318 55.7165 83.361C56.288 81.7774 55.9838 79.5464 55.9838 79.8053C55.9838 80.0643 46.9216 80.4029 46.9216 80.4029Z" fill="#E27F13"/>
<path d="M30.5856 101.417C39.9613 101.477 44.4878 100.84 47.2443 98.7482C49.3185 97.1746 50.3326 95.3918 51.7431 92.8521C53.6975 89.3363 53.6146 86.6372 53.6146 86.6372C53.6146 86.6372 45.7969 90.9896 30.3367 90.7705C15.1623 90.5613 7.02197 86.6571 7.02197 86.6571C7.02197 86.6571 7.75949 90.5215 8.98561 93.0313C10.4053 95.9197 12.9959 97.7523 12.9959 97.7523C12.9959 97.7523 17.9096 101.338 30.5856 101.417ZM14.6092 102.264C15.5403 102.633 16.5083 102.981 16.5083 102.981L17.8911 120.779C17.8911 120.779 15.4112 119.873 15.1254 118.917C14.9595 118.369 14.1851 112.463 13.632 107.662C13.337 105.093 13.0696 103.36 12.9959 102.443C12.9129 101.447 13.7334 101.915 14.6092 102.264ZM24.5749 104.774C21.4404 104.346 18.9421 103.778 18.9421 103.778C18.9882 104.146 20.1221 121.347 20.1221 121.347C20.1221 121.347 21.339 122.183 24.7592 122.642L24.5749 104.774ZM32.7705 105.063C30.4381 105.202 27.8384 105.023 26.9718 104.993L26.898 122.851C27.8015 122.911 28.7971 122.94 29.9126 122.93C30.8714 122.92 31.7749 122.861 32.6507 122.781L32.7705 105.063ZM43.5014 103.907C43.0589 107.971 42.1278 116.775 41.759 120.411C43.5014 119.723 44.1928 119.365 44.4233 118.419C44.6537 117.473 46.4699 103.947 46.516 103.21C46.5529 102.742 46.35 102.662 45.2253 103.17C44.5155 103.509 44.1744 103.648 43.5014 103.907ZM41.298 104.276C39.694 104.565 37.5828 104.854 35.0937 105.073L34.7895 122.492C36.7992 122.134 38.5139 121.606 39.9152 121.048C40.2932 116.845 41.0491 107.592 41.298 104.276Z" fill="#F5B03E"/>
<path d="M88.0845 7.38467V0.784668C48.4846 0.784668 16.5112 32.758 16.5112 72.0646H23.1112C23.1112 36.4247 52.1512 7.38467 88.0845 7.38467Z" fill="#FF6666"/>
<path d="M23.1113 72.0647H29.7113C29.7113 40.0914 55.818 13.9848 88.0846 13.9848V7.38477C52.1513 7.38477 23.1113 36.4248 23.1113 72.0647Z" fill="#FFFB80"/>
<path d="M88.0845 20.5849V13.9849C55.8178 13.9849 29.7112 39.9449 29.7112 72.0648H36.3112C36.3112 43.6115 59.4845 20.5849 88.0845 20.5849Z" fill="#A3E66F"/>
<path d="M36.3113 72.0645H42.9113C43.0579 47.2778 63.1513 27.1845 88.0846 27.1845V20.5845C59.4846 20.5845 36.3113 43.6111 36.3113 72.0645Z" fill="#66C2FF"/>
<path d="M88.0848 33.7846V27.1846C63.1514 27.1846 43.0581 47.2779 43.0581 72.0646H49.6581C49.6581 50.9446 66.8181 33.7846 88.0848 33.7846Z" fill="#9180FF"/>
<path d="M11.9648 86.8779C10.9381 86.8779 9.91145 86.7312 8.88479 86.4379C4.77812 85.1179 1.99146 81.3046 1.99146 77.0512C1.99146 74.2646 3.16479 71.4779 5.36479 69.5712L7.12479 68.2512L7.71145 65.9046C9.32479 60.1846 14.7515 56.2246 20.6181 56.2246C21.2048 56.2246 21.7914 56.2246 22.5248 56.3712C23.1114 56.5179 23.5514 56.5179 24.1381 56.6646L24.4315 56.2246C26.7781 51.9712 31.4715 49.1846 36.3114 49.1846C43.7914 49.1846 49.9514 55.3446 49.9514 62.8246V64.1446C50.5381 64.4379 51.1248 64.5846 51.7114 64.8779C55.3781 66.9312 57.5781 70.8912 57.5781 74.9979C57.5781 80.4246 53.7648 85.1179 48.4848 86.4379C47.6048 86.5846 46.7248 86.7312 45.8448 86.7312L11.9648 86.8779Z" fill="white"/>
<path d="M36.6047 51.2378C43.0581 51.2378 48.3381 56.3712 48.3381 62.8245V63.7045C45.6981 63.8512 43.2047 65.0245 41.2981 66.6378C42.7647 65.7578 44.3781 65.3178 46.1381 65.3178C46.7247 65.3178 47.4581 65.3178 48.0447 65.4645C49.0714 65.6112 50.0981 66.0512 50.9781 66.6378C53.9114 68.2512 55.8181 71.4778 55.8181 74.9978C55.8181 79.5445 52.5914 83.5045 48.1914 84.5312C47.4581 84.6778 46.7247 84.8245 45.9914 84.8245H11.9647C11.0847 84.8245 10.2047 84.6778 9.47141 84.3845C6.24475 83.3578 4.04475 80.4245 4.04475 76.9045C4.04475 74.5578 5.07141 72.3578 6.83141 70.8912C7.56475 70.1578 8.44475 69.7178 9.47141 69.4245C10.3514 69.1312 11.2314 68.9845 12.1114 68.9845C14.6047 68.9845 16.9514 70.1578 18.4181 72.0645C16.6581 68.9845 13.5781 66.7845 9.91141 66.4912C11.2314 61.7978 15.6314 58.2778 20.9114 58.2778C21.4981 58.2778 22.0847 58.2778 22.5247 58.4245C23.5514 58.5712 24.5781 58.8645 25.6047 59.3045C29.1247 60.9178 31.7647 64.1445 32.3514 68.1045C32.3514 63.5578 30.0047 59.7445 26.4847 57.3978C28.3914 53.5845 32.2047 51.2378 36.6047 51.2378ZM36.6047 47.2778C31.1781 47.2778 26.1914 50.0645 23.4047 54.4645H23.1114C22.2314 54.3178 21.6447 54.3178 20.9114 54.3178C14.0181 54.3178 8.00475 58.8645 6.09808 65.4645L5.65808 67.0778C5.21808 67.3712 4.63141 67.8112 4.19141 68.1045C2.90255 69.1796 1.86638 70.5255 1.15661 72.0465C0.446827 73.5674 0.080867 75.2261 0.0847473 76.9045C0.0847473 82.0378 3.31141 86.5845 8.29808 88.1978C9.47141 88.6378 10.7914 88.7845 12.1114 88.7845H46.1381C47.1647 88.7845 48.1914 88.6378 49.2181 88.4912C55.5247 87.0245 59.9247 81.5978 59.9247 75.1445C59.9247 70.3045 57.2847 65.7578 53.0314 63.2645C52.8847 63.1178 52.5914 62.9712 52.4447 62.9712V62.8245C52.2981 54.1712 45.2581 47.2778 36.6047 47.2778Z" fill="#75D6FF"/>
</svg>
